<svg width="800" height="600" xmlns="http://www.w3.org/2000/svg">

 <g>
  <title>Layer 1</title>
  <rect id="svg_7" height="425" width="587" y="85" x="106" stroke-width="0" stroke="#000" fill="#fff"/>
  <g>
   <g>
    <path fill="#FFFFFF" d="m281.456,366.9415c16.526,0 29.957,13.443 29.957,29.957c0,16.515 -13.432,29.957 -29.957,29.957c-16.515,0 -29.957,-13.443 -29.957,-29.957c-0.001,-16.515 13.442,-29.957 29.957,-29.957z"/>
    <path fill="#FFFFFF" d="m518.544,366.9415c16.515,0 29.957,13.443 29.957,29.957c0,16.515 -13.443,29.957 -29.957,29.957c-16.526,0 -29.957,-13.443 -29.957,-29.957c0,-16.515 13.432,-29.957 29.957,-29.957z"/>
    <path fill="#FFFFFF" d="m352.373,162.2505l0,83.064l-155.321,0l65.46,-69.545c6.177,-6.569 22.256,-13.519 31.276,-13.519l58.585,0z"/>
   </g>
   <path fill="#C5E2E2" d="m479.665,173.0565l33.596,72.257l-160.888,0l0,-83.063l110.265,0c5.36,0 14.75,5.958 17.027,10.806z"/>
   <path fill="#ED6951" d="m601.107,277.9945c0,-5.164 0.839,-10.12 2.386,-14.772c0,-0.011 -38.204,-12.746 -38.204,-12.746c-8.53,-2.832 -18.628,-11.82 -22.463,-19.946l-33.596,-71.397c-7.647,-16.264 -28.618,-29.565 -46.592,-29.565l-168.851,0c-17.974,0 -42.757,10.708 -55.078,23.803l-75.34,80.046c-6.155,6.547 -11.199,19.249 -11.199,28.236l0,102.563c0,17.974 14.706,32.681 32.681,32.681l23.073,0c0,-40.611 32.921,-73.532 73.532,-73.532s73.532,32.921 73.532,73.532l90.025,0c0,-40.611 32.921,-73.532 73.532,-73.532s73.532,32.921 73.532,73.532c0,0 11.634,0 27.288,0s28.465,-14.706 28.465,-32.681l0,-39.5c-25.807,0.001 -46.723,-20.915 -46.723,-46.722zm-404.055,-32.68l65.46,-69.545c6.177,-6.569 22.256,-13.519 31.276,-13.519l168.851,0c5.36,0 14.75,5.959 17.027,10.806l33.596,72.257l-316.21,0l0,0.001z"/>
   <g>
    <path fill="#AECE71" d="m281.456,323.3665c40.611,0 73.532,32.921 73.532,73.532s-32.921,73.532 -73.532,73.532s-73.532,-32.921 -73.532,-73.532s32.92,-73.532 73.532,-73.532zm29.957,73.532c0,-16.515 -13.432,-29.957 -29.957,-29.957c-16.515,0 -29.957,13.443 -29.957,29.957c0,16.515 13.443,29.957 29.957,29.957c16.525,0.001 29.957,-13.442 29.957,-29.957z"/>
    <path fill="#AECE71" d="m518.544,323.3665c40.611,0 73.532,32.921 73.532,73.532s-32.921,73.532 -73.532,73.532s-73.532,-32.921 -73.532,-73.532s32.921,-73.532 73.532,-73.532zm29.958,73.532c0,-16.515 -13.443,-29.957 -29.957,-29.957c-16.526,0 -29.957,13.443 -29.957,29.957c0,16.515 13.432,29.957 29.957,29.957c16.514,0.001 29.957,-13.442 29.957,-29.957z"/>
   </g>
   <path fill="#EEC278" d="m603.504,263.2235c24.38,8.127 44.326,35.796 44.326,61.494c-25.807,0 -46.723,-20.916 -46.723,-46.723c0,-5.163 0.839,-10.12 2.397,-14.771z"/>
   <g>
    <path fill="#700019" d="m281.46,435.0275c21.024,0 38.128,-17.104 38.128,-38.128c0,-21.024 -17.104,-38.128 -38.128,-38.128s-38.128,17.104 -38.128,38.128c0,21.024 17.104,38.128 38.128,38.128zm0,-59.915c12.013,0 21.787,9.774 21.787,21.787s-9.774,21.787 -21.787,21.787s-21.787,-9.774 -21.787,-21.787s9.772,-21.787 21.787,-21.787z"/>
    <path fill="#700019" d="m518.54,358.7725c-21.024,0 -38.128,17.104 -38.128,38.128c0,21.024 17.104,38.128 38.128,38.128c21.024,0 38.128,-17.104 38.128,-38.128c0,-21.024 -17.104,-38.128 -38.128,-38.128zm0,59.914c-12.013,0 -21.787,-9.774 -21.787,-21.787s9.774,-21.787 21.787,-21.787s21.787,9.774 21.787,21.787s-9.772,21.787 -21.787,21.787z"/>
    <path fill="#700019" d="m293.787,170.4195l25.904,0c4.513,0 8.17,-3.658 8.17,-8.17c0,-4.512 -3.657,-8.17 -8.17,-8.17l-25.904,0c-11.354,0 -29.447,7.817 -37.231,16.087l-65.458,69.55c-2.234,2.374 -2.842,5.848 -1.55,8.84c1.293,2.992 4.241,4.929 7.5,4.929l316.21,0c2.791,0 5.387,-1.424 6.888,-3.777c1.5,-2.352 1.697,-5.308 0.521,-7.838l-33.611,-72.295c-3.611,-7.676 -15.935,-15.496 -24.418,-15.496l-110.266,0c-4.513,0 -8.17,3.658 -8.17,8.17l-0.001,74.896l-128.242,0l52.496,-55.78c4.622,-4.911 18.591,-10.946 25.332,-10.946zm66.755,0l102.073,0c2.4,0.112 8.543,4.01 9.64,6.08l28.196,60.646l-139.91,0l0.001,-66.726z"/>
    <path fill="#700019" d="m656,324.7195c0,-29.011 -22.392,-60.077 -49.913,-69.251c-0.019,-0.007 -38.213,-12.738 -38.213,-12.738c-6.377,-2.125 -14.789,-9.599 -17.651,-15.68l-33.596,-71.391c-9.041,-19.212 -32.755,-34.262 -53.989,-34.262l-168.851,0c-20.305,0 -47.112,11.582 -61.028,26.369l-75.338,80.048c-7.526,7.997 -13.421,22.86 -13.421,33.841l0,102.563c0,22.526 18.325,40.851 40.851,40.851l15.316,0c4.112,41.228 38.999,73.532 81.293,73.532s77.18,-32.304 81.293,-73.532l49.576,0c4.513,0 8.17,-3.658 8.17,-8.17c0,-4.512 -3.657,-8.17 -8.17,-8.17l-49.576,0c-4.112,-41.228 -38.999,-73.532 -81.293,-73.532s-77.18,32.304 -81.293,73.532l-15.316,0c-13.515,0 -24.511,-10.995 -24.511,-24.511l0,-102.563c0,-6.856 4.28,-17.648 8.979,-22.64l75.339,-80.05c10.829,-11.507 33.328,-21.227 49.129,-21.227l168.851,0c14.905,0 32.857,11.393 39.203,24.879l33.596,71.391c4.816,10.235 16.539,20.649 27.268,24.225l31.045,10.348c-0.536,3.095 -0.815,6.241 -0.815,9.414c0,27.493 20.317,50.326 46.725,54.284l0,31.94c0,13.516 -9.104,24.511 -20.296,24.511l-19.531,0c-4.112,-41.228 -38.999,-73.532 -81.293,-73.532c-45.051,0 -81.702,36.652 -81.702,81.702s36.652,81.702 81.702,81.702c42.293,0 77.18,-32.304 81.293,-73.532l19.531,0c20.201,0 36.636,-18.325 36.636,-40.851l0,-39.5l0,0zm-374.54,6.819c36.04,0 65.362,29.321 65.362,65.362s-29.321,65.362 -65.362,65.362s-65.362,-29.321 -65.362,-65.362s29.322,-65.362 65.362,-65.362zm237.08,130.723c-36.04,0 -65.362,-29.321 -65.362,-65.362s29.321,-65.362 65.362,-65.362s65.362,29.321 65.362,65.362s-29.322,65.362 -65.362,65.362zm90.735,-184.266c0,-1.056 0.044,-2.107 0.127,-3.152c14.336,8.309 25.913,24.369 29.265,40.596c-16.848,-4.122 -29.392,-19.342 -29.392,-37.444z"/>
   </g>
   <g/>
   <g/>
   <g/>
   <g/>
   <g/>
   <g/>
   <g/>
   <g/>
   <g/>
   <g/>
   <g/>
   <g/>
   <g/>
   <g/>
   <g/>
  </g>
 </g>
</svg>